<mxfile host="app.diagrams.net" modified="2023-06-07T07:23:33.947Z" agent="Mozilla/5.0 (Windows NT 10.0; Win64; x64) AppleWebKit/537.36 (KHTML, like Gecko) Chrome/114.0.0.0 Safari/537.36 Edg/114.0.1823.37" etag="pJIOiDwEdHRAZsgGBOGU" version="21.3.7" type="github">
  <diagram name="Page-1" id="jINwdqk66DMcaBhefttW">
    <mxGraphModel dx="825" dy="452" grid="1" gridSize="10" guides="1" tooltips="1" connect="1" arrows="1" fold="1" page="1" pageScale="1" pageWidth="850" pageHeight="1100" math="0" shadow="0">
      <root>
        <mxCell id="0" />
        <mxCell id="1" parent="0" />
        <mxCell id="tOMoxlkObsfpbXWG7EUW-1" value="images" style="swimlane;fontStyle=1;align=center;verticalAlign=top;childLayout=stackLayout;horizontal=1;startSize=26;horizontalStack=0;resizeParent=1;resizeParentMax=0;resizeLast=0;collapsible=1;marginBottom=0;whiteSpace=wrap;html=1;" parent="1" vertex="1">
          <mxGeometry x="680" y="200" width="105" height="70" as="geometry" />
        </mxCell>
        <mxCell id="tOMoxlkObsfpbXWG7EUW-3" value="" style="line;strokeWidth=1;fillColor=none;align=left;verticalAlign=middle;spacingTop=-1;spacingLeft=3;spacingRight=3;rotatable=0;labelPosition=right;points=[];portConstraint=eastwest;strokeColor=inherit;" parent="tOMoxlkObsfpbXWG7EUW-1" vertex="1">
          <mxGeometry y="26" width="105" height="4" as="geometry" />
        </mxCell>
        <mxCell id="pA6Jrh5P_2wQihIdZs5N-2" value="url&lt;br&gt;id" style="text;html=1;align=left;verticalAlign=middle;resizable=0;points=[];autosize=1;strokeColor=none;fillColor=none;" parent="tOMoxlkObsfpbXWG7EUW-1" vertex="1">
          <mxGeometry y="30" width="105" height="40" as="geometry" />
        </mxCell>
        <mxCell id="tOMoxlkObsfpbXWG7EUW-5" value="settings" style="swimlane;fontStyle=1;align=center;verticalAlign=top;childLayout=stackLayout;horizontal=1;startSize=26;horizontalStack=0;resizeParent=1;resizeParentMax=0;resizeLast=0;collapsible=1;marginBottom=0;whiteSpace=wrap;html=1;" parent="1" vertex="1">
          <mxGeometry x="670" y="5" width="160" height="110" as="geometry" />
        </mxCell>
        <mxCell id="tOMoxlkObsfpbXWG7EUW-7" value="" style="line;strokeWidth=1;fillColor=none;align=left;verticalAlign=middle;spacingTop=-1;spacingLeft=3;spacingRight=3;rotatable=0;labelPosition=right;points=[];portConstraint=eastwest;strokeColor=inherit;" parent="tOMoxlkObsfpbXWG7EUW-5" vertex="1">
          <mxGeometry y="26" width="160" height="8" as="geometry" />
        </mxCell>
        <mxCell id="tOMoxlkObsfpbXWG7EUW-8" value="id&lt;br&gt;type&lt;br&gt;content" style="text;strokeColor=none;fillColor=none;align=left;verticalAlign=top;spacingLeft=4;spacingRight=4;overflow=hidden;rotatable=0;points=[[0,0.5],[1,0.5]];portConstraint=eastwest;whiteSpace=wrap;html=1;" parent="tOMoxlkObsfpbXWG7EUW-5" vertex="1">
          <mxGeometry y="34" width="160" height="76" as="geometry" />
        </mxCell>
        <mxCell id="tOMoxlkObsfpbXWG7EUW-10" value="users" style="swimlane;fontStyle=1;align=center;verticalAlign=top;childLayout=stackLayout;horizontal=1;startSize=26;horizontalStack=0;resizeParent=1;resizeParentMax=0;resizeLast=0;collapsible=1;marginBottom=0;whiteSpace=wrap;html=1;" parent="1" vertex="1">
          <mxGeometry x="30" y="6" width="160" height="170" as="geometry" />
        </mxCell>
        <mxCell id="tOMoxlkObsfpbXWG7EUW-11" value="id&lt;br&gt;name&lt;br&gt;phone&lt;br&gt;email&lt;br&gt;password&lt;br&gt;status" style="text;strokeColor=none;fillColor=none;align=left;verticalAlign=top;spacingLeft=4;spacingRight=4;overflow=hidden;rotatable=0;points=[[0,0.5],[1,0.5]];portConstraint=eastwest;whiteSpace=wrap;html=1;" parent="tOMoxlkObsfpbXWG7EUW-10" vertex="1">
          <mxGeometry y="26" width="160" height="124" as="geometry" />
        </mxCell>
        <mxCell id="tOMoxlkObsfpbXWG7EUW-12" value="" style="line;strokeWidth=1;fillColor=none;align=left;verticalAlign=middle;spacingTop=-1;spacingLeft=3;spacingRight=3;rotatable=0;labelPosition=right;points=[];portConstraint=eastwest;strokeColor=inherit;" parent="tOMoxlkObsfpbXWG7EUW-10" vertex="1">
          <mxGeometry y="150" width="160" height="20" as="geometry" />
        </mxCell>
        <mxCell id="tOMoxlkObsfpbXWG7EUW-14" value="news" style="swimlane;fontStyle=1;align=center;verticalAlign=top;childLayout=stackLayout;horizontal=1;startSize=26;horizontalStack=0;resizeParent=1;resizeParentMax=0;resizeLast=0;collapsible=1;marginBottom=0;whiteSpace=wrap;html=1;" parent="1" vertex="1">
          <mxGeometry x="250" y="6" width="160" height="114" as="geometry" />
        </mxCell>
        <mxCell id="tOMoxlkObsfpbXWG7EUW-16" value="" style="line;strokeWidth=1;fillColor=none;align=left;verticalAlign=middle;spacingTop=-1;spacingLeft=3;spacingRight=3;rotatable=0;labelPosition=right;points=[];portConstraint=eastwest;strokeColor=inherit;" parent="tOMoxlkObsfpbXWG7EUW-14" vertex="1">
          <mxGeometry y="26" width="160" height="8" as="geometry" />
        </mxCell>
        <mxCell id="tOMoxlkObsfpbXWG7EUW-17" value="id&lt;br&gt;content&lt;br&gt;image" style="text;strokeColor=none;fillColor=none;align=left;verticalAlign=top;spacingLeft=4;spacingRight=4;overflow=hidden;rotatable=0;points=[[0,0.5],[1,0.5]];portConstraint=eastwest;whiteSpace=wrap;html=1;" parent="tOMoxlkObsfpbXWG7EUW-14" vertex="1">
          <mxGeometry y="34" width="160" height="80" as="geometry" />
        </mxCell>
        <mxCell id="b3kXQAV7QsY5PpGhtDHU-17" style="edgeStyle=orthogonalEdgeStyle;rounded=0;orthogonalLoop=1;jettySize=auto;html=1;exitX=0.5;exitY=1;exitDx=0;exitDy=0;" edge="1" parent="1" source="tOMoxlkObsfpbXWG7EUW-27" target="S894nJClgSg21sT1aZvM-1">
          <mxGeometry relative="1" as="geometry" />
        </mxCell>
        <mxCell id="tOMoxlkObsfpbXWG7EUW-27" value="orders" style="swimlane;fontStyle=1;align=center;verticalAlign=top;childLayout=stackLayout;horizontal=1;startSize=26;horizontalStack=0;resizeParent=1;resizeParentMax=0;resizeLast=0;collapsible=1;marginBottom=0;whiteSpace=wrap;html=1;" parent="1" vertex="1">
          <mxGeometry x="30" y="222" width="160" height="98" as="geometry" />
        </mxCell>
        <mxCell id="tOMoxlkObsfpbXWG7EUW-28" value="id&lt;br&gt;id_user&lt;br&gt;create_at&lt;br&gt;status" style="text;strokeColor=none;fillColor=none;align=left;verticalAlign=top;spacingLeft=4;spacingRight=4;overflow=hidden;rotatable=0;points=[[0,0.5],[1,0.5]];portConstraint=eastwest;whiteSpace=wrap;html=1;" parent="tOMoxlkObsfpbXWG7EUW-27" vertex="1">
          <mxGeometry y="26" width="160" height="64" as="geometry" />
        </mxCell>
        <mxCell id="tOMoxlkObsfpbXWG7EUW-29" value="" style="line;strokeWidth=1;fillColor=none;align=left;verticalAlign=middle;spacingTop=-1;spacingLeft=3;spacingRight=3;rotatable=0;labelPosition=right;points=[];portConstraint=eastwest;strokeColor=inherit;" parent="tOMoxlkObsfpbXWG7EUW-27" vertex="1">
          <mxGeometry y="90" width="160" height="8" as="geometry" />
        </mxCell>
        <mxCell id="tOMoxlkObsfpbXWG7EUW-41" value="products" style="swimlane;fontStyle=1;align=center;verticalAlign=top;childLayout=stackLayout;horizontal=1;startSize=26;horizontalStack=0;resizeParent=1;resizeParentMax=0;resizeLast=0;collapsible=1;marginBottom=0;whiteSpace=wrap;html=1;" parent="1" vertex="1">
          <mxGeometry x="360" y="320" width="160" height="128" as="geometry" />
        </mxCell>
        <mxCell id="tOMoxlkObsfpbXWG7EUW-42" value="id&lt;br&gt;name&lt;br&gt;price&lt;br&gt;describe&lt;br&gt;short_describe&lt;br&gt;image" style="text;strokeColor=none;fillColor=none;align=left;verticalAlign=top;spacingLeft=4;spacingRight=4;overflow=hidden;rotatable=0;points=[[0,0.5],[1,0.5]];portConstraint=eastwest;whiteSpace=wrap;html=1;" parent="tOMoxlkObsfpbXWG7EUW-41" vertex="1">
          <mxGeometry y="26" width="160" height="94" as="geometry" />
        </mxCell>
        <mxCell id="tOMoxlkObsfpbXWG7EUW-43" value="" style="line;strokeWidth=1;fillColor=none;align=left;verticalAlign=middle;spacingTop=-1;spacingLeft=3;spacingRight=3;rotatable=0;labelPosition=right;points=[];portConstraint=eastwest;strokeColor=inherit;" parent="tOMoxlkObsfpbXWG7EUW-41" vertex="1">
          <mxGeometry y="120" width="160" height="8" as="geometry" />
        </mxCell>
        <mxCell id="S894nJClgSg21sT1aZvM-1" value="order_details" style="swimlane;fontStyle=0;childLayout=stackLayout;horizontal=1;startSize=26;fillColor=none;horizontalStack=0;resizeParent=1;resizeParentMax=0;resizeLast=0;collapsible=1;marginBottom=0;whiteSpace=wrap;html=1;" parent="1" vertex="1">
          <mxGeometry x="40" y="354" width="140" height="94" as="geometry" />
        </mxCell>
        <mxCell id="S894nJClgSg21sT1aZvM-4" value="id_product&lt;br&gt;quantity&lt;br&gt;&lt;b&gt;id_oder&lt;br&gt;price&lt;br&gt;&lt;/b&gt;" style="text;strokeColor=none;fillColor=none;align=left;verticalAlign=top;spacingLeft=4;spacingRight=4;overflow=hidden;rotatable=0;points=[[0,0.5],[1,0.5]];portConstraint=eastwest;whiteSpace=wrap;html=1;" parent="S894nJClgSg21sT1aZvM-1" vertex="1">
          <mxGeometry y="26" width="140" height="68" as="geometry" />
        </mxCell>
        <mxCell id="S894nJClgSg21sT1aZvM-6" value="advisories" style="swimlane;fontStyle=0;childLayout=stackLayout;horizontal=1;startSize=26;fillColor=none;horizontalStack=0;resizeParent=1;resizeParentMax=0;resizeLast=0;collapsible=1;marginBottom=0;whiteSpace=wrap;html=1;" parent="1" vertex="1">
          <mxGeometry x="480" y="5" width="140" height="110" as="geometry" />
        </mxCell>
        <mxCell id="S894nJClgSg21sT1aZvM-9" value="id&lt;br&gt;phone&amp;nbsp;&lt;br&gt;name&lt;br&gt;status&lt;br&gt;email" style="text;strokeColor=none;fillColor=none;align=left;verticalAlign=top;spacingLeft=4;spacingRight=4;overflow=hidden;rotatable=0;points=[[0,0.5],[1,0.5]];portConstraint=eastwest;whiteSpace=wrap;html=1;" parent="S894nJClgSg21sT1aZvM-6" vertex="1">
          <mxGeometry y="26" width="140" height="84" as="geometry" />
        </mxCell>
        <mxCell id="b3kXQAV7QsY5PpGhtDHU-19" style="edgeStyle=orthogonalEdgeStyle;rounded=0;orthogonalLoop=1;jettySize=auto;html=1;exitX=0.5;exitY=0;exitDx=0;exitDy=0;entryX=0.514;entryY=1.075;entryDx=0;entryDy=0;entryPerimeter=0;" edge="1" parent="1" source="b3kXQAV7QsY5PpGhtDHU-1" target="pA6Jrh5P_2wQihIdZs5N-2">
          <mxGeometry relative="1" as="geometry" />
        </mxCell>
        <mxCell id="b3kXQAV7QsY5PpGhtDHU-1" value="image_products" style="swimlane;fontStyle=0;childLayout=stackLayout;horizontal=1;startSize=26;fillColor=none;horizontalStack=0;resizeParent=1;resizeParentMax=0;resizeLast=0;collapsible=1;marginBottom=0;whiteSpace=wrap;html=1;" vertex="1" parent="1">
          <mxGeometry x="662.5" y="360" width="140" height="78" as="geometry" />
        </mxCell>
        <mxCell id="b3kXQAV7QsY5PpGhtDHU-2" value="id_product" style="text;strokeColor=none;fillColor=none;align=left;verticalAlign=top;spacingLeft=4;spacingRight=4;overflow=hidden;rotatable=0;points=[[0,0.5],[1,0.5]];portConstraint=eastwest;whiteSpace=wrap;html=1;" vertex="1" parent="b3kXQAV7QsY5PpGhtDHU-1">
          <mxGeometry y="26" width="140" height="26" as="geometry" />
        </mxCell>
        <mxCell id="b3kXQAV7QsY5PpGhtDHU-3" value="id_image" style="text;strokeColor=none;fillColor=none;align=left;verticalAlign=top;spacingLeft=4;spacingRight=4;overflow=hidden;rotatable=0;points=[[0,0.5],[1,0.5]];portConstraint=eastwest;whiteSpace=wrap;html=1;" vertex="1" parent="b3kXQAV7QsY5PpGhtDHU-1">
          <mxGeometry y="52" width="140" height="26" as="geometry" />
        </mxCell>
        <mxCell id="b3kXQAV7QsY5PpGhtDHU-5" value="image_news" style="swimlane;fontStyle=0;childLayout=stackLayout;horizontal=1;startSize=26;fillColor=none;horizontalStack=0;resizeParent=1;resizeParentMax=0;resizeLast=0;collapsible=1;marginBottom=0;whiteSpace=wrap;html=1;" vertex="1" parent="1">
          <mxGeometry x="285" y="180" width="140" height="78" as="geometry" />
        </mxCell>
        <mxCell id="b3kXQAV7QsY5PpGhtDHU-6" value="id_news" style="text;strokeColor=none;fillColor=none;align=left;verticalAlign=top;spacingLeft=4;spacingRight=4;overflow=hidden;rotatable=0;points=[[0,0.5],[1,0.5]];portConstraint=eastwest;whiteSpace=wrap;html=1;" vertex="1" parent="b3kXQAV7QsY5PpGhtDHU-5">
          <mxGeometry y="26" width="140" height="26" as="geometry" />
        </mxCell>
        <mxCell id="b3kXQAV7QsY5PpGhtDHU-7" value="id_images" style="text;strokeColor=none;fillColor=none;align=left;verticalAlign=top;spacingLeft=4;spacingRight=4;overflow=hidden;rotatable=0;points=[[0,0.5],[1,0.5]];portConstraint=eastwest;whiteSpace=wrap;html=1;" vertex="1" parent="b3kXQAV7QsY5PpGhtDHU-5">
          <mxGeometry y="52" width="140" height="26" as="geometry" />
        </mxCell>
        <mxCell id="b3kXQAV7QsY5PpGhtDHU-12" style="edgeStyle=orthogonalEdgeStyle;rounded=0;orthogonalLoop=1;jettySize=auto;html=1;exitX=0;exitY=0.5;exitDx=0;exitDy=0;entryX=0;entryY=0.5;entryDx=0;entryDy=0;" edge="1" parent="1" source="tOMoxlkObsfpbXWG7EUW-11" target="tOMoxlkObsfpbXWG7EUW-28">
          <mxGeometry relative="1" as="geometry" />
        </mxCell>
        <mxCell id="b3kXQAV7QsY5PpGhtDHU-16" style="edgeStyle=orthogonalEdgeStyle;rounded=0;orthogonalLoop=1;jettySize=auto;html=1;exitX=0;exitY=0.5;exitDx=0;exitDy=0;entryX=1.029;entryY=0.265;entryDx=0;entryDy=0;entryPerimeter=0;" edge="1" parent="1" source="tOMoxlkObsfpbXWG7EUW-42" target="S894nJClgSg21sT1aZvM-4">
          <mxGeometry relative="1" as="geometry" />
        </mxCell>
        <mxCell id="b3kXQAV7QsY5PpGhtDHU-20" style="edgeStyle=orthogonalEdgeStyle;rounded=0;orthogonalLoop=1;jettySize=auto;html=1;exitX=1;exitY=0.5;exitDx=0;exitDy=0;" edge="1" parent="1" source="b3kXQAV7QsY5PpGhtDHU-6" target="pA6Jrh5P_2wQihIdZs5N-2">
          <mxGeometry relative="1" as="geometry" />
        </mxCell>
        <mxCell id="b3kXQAV7QsY5PpGhtDHU-21" style="edgeStyle=orthogonalEdgeStyle;rounded=0;orthogonalLoop=1;jettySize=auto;html=1;exitX=0;exitY=0.5;exitDx=0;exitDy=0;" edge="1" parent="1" source="tOMoxlkObsfpbXWG7EUW-17" target="b3kXQAV7QsY5PpGhtDHU-5">
          <mxGeometry relative="1" as="geometry" />
        </mxCell>
        <mxCell id="b3kXQAV7QsY5PpGhtDHU-22" style="edgeStyle=orthogonalEdgeStyle;rounded=0;orthogonalLoop=1;jettySize=auto;html=1;exitX=1;exitY=0.5;exitDx=0;exitDy=0;entryX=0;entryY=0.5;entryDx=0;entryDy=0;" edge="1" parent="1" source="tOMoxlkObsfpbXWG7EUW-42" target="b3kXQAV7QsY5PpGhtDHU-2">
          <mxGeometry relative="1" as="geometry" />
        </mxCell>
      </root>
    </mxGraphModel>
  </diagram>
</mxfile>
